<svg width="25" height="25" viewBox="0 0 512 512" fill="none" xmlns="http://www.w3.org/2000/svg">
<path d="M426.667 170.667L298.667 58.4535C286.933 47.9584 271.743 42.1563 256 42.1562C240.257 42.1563 225.067 47.9584 213.333 58.4535L85.3334 170.667C78.5573 176.727 73.1499 184.161 69.4715 192.475C65.793 200.788 63.9278 209.79 64.0001 218.88V405.333C64.0001 422.307 70.7429 438.586 82.7452 450.588C94.7476 462.591 111.026 469.333 128 469.333H384C400.974 469.333 417.253 462.591 429.255 450.588C441.257 438.586 448 422.307 448 405.333V218.667C448.042 209.612 446.162 200.652 442.485 192.377C438.807 184.103 433.416 176.703 426.667 170.667ZM298.667 426.667H213.333V320C213.333 314.342 215.581 308.916 219.582 304.915C223.583 300.914 229.009 298.667 234.667 298.667H277.333C282.991 298.667 288.418 300.914 292.418 304.915C296.419 308.916 298.667 314.342 298.667 320V426.667ZM405.333 405.333C405.333 410.991 403.086 416.418 399.085 420.418C395.084 424.419 389.658 426.667 384 426.667H341.333V320C341.333 303.026 334.591 286.748 322.588 274.745C310.586 262.743 294.307 256 277.333 256H234.667C217.693 256 201.414 262.743 189.412 274.745C177.41 286.748 170.667 303.026 170.667 320V426.667H128C122.342 426.667 116.916 424.419 112.915 420.418C108.914 416.418 106.667 410.991 106.667 405.333V218.667C106.671 215.638 107.319 212.644 108.57 209.886C109.821 207.127 111.644 204.666 113.92 202.667L241.92 90.6668C245.813 87.2467 250.818 85.3605 256 85.3605C261.182 85.3605 266.187 87.2467 270.08 90.6668L398.08 202.667C400.356 204.666 402.179 207.127 403.43 209.886C404.681 212.644 405.33 215.638 405.333 218.667V405.333Z" fill="white"/>
</svg>